<svg width="24" height="24" viewBox="0 0 24 24" fill="none" xmlns="http://www.w3.org/2000/svg">
<g clip-path="url(#clip0)">
<path d="M23.8183 11.8333L18.4023 2.45241C18.1601 2.0329 17.7263 1.78246 17.2419 1.78246C16.7575 1.78246 16.3237 2.0329 16.0815 2.45241L15.1281 4.10374C14.517 3.70157 13.8484 3.38373 13.146 3.15747V2.57672C13.146 1.1562 11.9903 0.000549316 10.5698 0.000549316C9.14927 0.000549316 7.99363 1.1562 7.99363 2.57672V3.15579C4.87467 4.16378 2.62717 6.94887 2.62717 10.2183V16.1094H2.37429C1.06509 16.1094 0 17.1745 0 18.4837C0 19.7929 1.06509 20.8579 2.37424 20.8579H7.29433C7.36675 22.6024 8.8079 23.9994 10.5698 23.9994C12.3317 23.9994 13.7729 22.6023 13.8453 20.8579H18.7653C20.0746 20.8579 21.1396 19.7928 21.1396 18.4837C21.1396 17.1745 20.0745 16.1094 18.7653 16.1094H18.5125V13.8432H22.6579C23.1423 13.8432 23.5761 13.5927 23.8183 13.1732C24.0606 12.7537 24.0606 12.2528 23.8183 11.8333ZM9.39981 2.57677C9.39981 1.93161 9.92469 1.40678 10.5698 1.40678C11.215 1.40678 11.7398 1.93161 11.7398 2.57677V2.83452C11.3538 2.78024 10.9627 2.75249 10.5698 2.75249C10.1724 2.75249 9.78173 2.78043 9.39981 2.83368V2.57677ZM10.5698 22.5932C9.58341 22.5932 8.77331 21.8266 8.70262 20.858H12.437C12.3663 21.8265 11.5562 22.5932 10.5698 22.5932ZM19.7334 18.4837C19.7334 19.0175 19.2991 19.4517 18.7653 19.4517H2.37424C1.84046 19.4517 1.40618 19.0175 1.40618 18.4837C1.40618 17.9499 1.84046 17.5156 2.37424 17.5156H18.7653C19.2991 17.5156 19.7334 17.9498 19.7334 18.4837ZM17.1063 16.1094H4.0333V10.2184C4.0333 6.87706 6.96557 4.15867 10.5698 4.15867C11.9547 4.15867 13.3101 4.57078 14.4234 5.32431L10.6654 11.8333C10.4232 12.2528 10.4232 12.7537 10.6654 13.1732C10.9076 13.5927 11.3414 13.8432 11.8258 13.8432H17.1062V16.1094H17.1063ZM11.9406 12.437L17.2419 3.25487L22.5432 12.437H11.9406Z" fill="currentColor"/>
<path d="M16.5389 6.91229V8.11715C16.5389 8.50544 16.8537 8.82024 17.242 8.82024C17.6303 8.82024 17.9451 8.50544 17.9451 8.11715V6.91229C17.9451 6.52399 17.6303 6.2092 17.242 6.2092C16.8537 6.2092 16.5389 6.52399 16.5389 6.91229Z" fill="currentColor"/>
<path d="M17.9314 10.3154C17.8715 10.027 17.6375 9.80217 17.3456 9.75764C17.0557 9.71339 16.7597 9.8631 16.6223 10.1218C16.4841 10.3818 16.5242 10.706 16.7212 10.9248C16.9179 11.1433 17.2401 11.2139 17.511 11.102C17.8155 10.9761 17.9986 10.6396 17.9314 10.3154Z" fill="currentColor"/>
</g>
<defs>
<clipPath id="clip0">
<rect width="24" height="24" fill="currentColor"/>
</clipPath>
</defs>
</svg>
