<svg viewBox="0 0 12 8" fill="none" xmlns="http://www.w3.org/2000/svg">
<path d="M5.99746 2.84408L10.4868 7.33324C10.6101 7.45685 10.775 7.52485 10.9508 7.52485C11.1267 7.52485 11.2915 7.45685 11.415 7.33324L11.8082 6.93988C11.9319 6.81646 12 6.65149 12 6.47568C12 6.29988 11.9319 6.1351 11.8082 6.01159L6.46322 0.66653C6.33931 0.54253 6.17375 0.474628 5.99775 0.475116C5.82097 0.474628 5.65561 0.542432 5.53161 0.66653L0.1918 6.00661C0.0680934 6.13012 -4.69897e-06 6.2949 -4.69687e-06 6.4708C-4.69478e-06 6.64661 0.0680934 6.81139 0.1918 6.935L0.584972 7.32826C0.840874 7.58417 1.25746 7.58417 1.51326 7.32826L5.99746 2.84408Z" fill="#495660"/>
</svg>
