<svg width="12" height="8" viewBox="0 0 12 8" fill="none" xmlns="http://www.w3.org/2000/svg">
<path d="M6.00254 5.15592L1.51317 0.666759C1.38985 0.54315 1.22498 0.475151 1.04917 0.475151C0.873268 0.475151 0.708488 0.54315 0.584976 0.666759L0.191805 1.06012C0.0680973 1.18354 -2.69978e-07 1.34851 -2.62293e-07 1.52432C-2.54609e-07 1.70012 0.0680973 1.8649 0.191805 1.98841L5.53678 7.33347C5.66069 7.45747 5.82625 7.52537 6.00225 7.52488C6.17903 7.52537 6.34439 7.45757 6.46839 7.33347L11.8082 1.99339C11.9319 1.86988 12 1.7051 12 1.5292C12 1.35339 11.9319 1.18861 11.8082 1.065L11.415 0.671735C11.1591 0.415833 10.7425 0.415833 10.4867 0.671735L6.00254 5.15592Z" fill="#7B7B7B"/>
</svg>
