<svg width="25" height="25" viewBox="0 0 25 25" fill="none" xmlns="http://www.w3.org/2000/svg">
<path d="M21.5975 20.5858C25.775 15.7674 24.3215 8.27677 18.64 5.35467C16.9992 2.1773 13.6828 0 9.8672 0C4.4267 0 0.000571754 4.42641 0.000571754 9.86719C0.000571754 12.2625 0.848447 14.5278 2.40231 16.3201L0.209775 18.4839C-0.2346 18.9225 0.073228 19.6845 0.700322 19.6875L5.99513 19.7127C7.81974 22.3678 10.8339 24 14.1326 24C14.1394 24 23.2942 23.9532 23.2996 23.9531C23.9245 23.9501 24.2359 23.1895 23.7901 22.7495L21.5975 20.5858ZM3.87948 15.8445C2.28493 14.247 1.40673 12.1242 1.40673 9.86719C1.40673 5.20181 5.2021 1.40625 9.8672 1.40625C14.5323 1.40625 18.3277 5.20181 18.3277 9.86719C18.3277 14.3378 14.7899 18.3642 9.59284 18.3236L2.40887 18.2894L3.87573 16.8418C4.15313 16.5679 4.15478 16.1204 3.87948 15.8445ZM14.1326 22.5938C11.6654 22.5938 9.37215 21.5396 7.77802 19.7212C10.4548 19.7388 9.7442 19.7344 9.8672 19.7344C16.2142 19.7344 20.9534 13.7808 19.462 7.56483C23.351 10.7417 23.6695 16.5545 20.1204 20.1102C19.845 20.386 19.8467 20.8336 20.1241 21.1074L21.591 22.555C21.5854 22.555 14.1381 22.5938 14.1326 22.5938Z" fill="currentColor"/>
<path d="M5.66988 7.78125H14.1069C14.4952 7.78125 14.81 7.46644 14.81 7.07812C14.81 6.68981 14.4952 6.375 14.1069 6.375H5.66988C5.28156 6.375 4.9668 6.68981 4.9668 7.07812C4.9668 7.46644 5.28161 7.78125 5.66988 7.78125Z" fill="currentColor"/>
<path d="M5.66988 10.5938H14.1069C14.4952 10.5938 14.81 10.2789 14.81 9.89062C14.81 9.50231 14.4952 9.1875 14.1069 9.1875H5.66988C5.28156 9.1875 4.9668 9.50231 4.9668 9.89062C4.9668 10.2789 5.28161 10.5938 5.66988 10.5938Z" fill="currentColor"/>
<path d="M5.66988 13.4062H14.1069C14.4952 13.4062 14.81 13.0914 14.81 12.7031C14.81 12.3148 14.4952 12 14.1069 12H5.66988C5.28156 12 4.9668 12.3148 4.9668 12.7031C4.9668 13.0914 5.28161 13.4062 5.66988 13.4062Z" fill="currentColor"/>
</svg>
