<svg width="18" height="24" viewBox="0 0 18 24" fill="none" xmlns="http://www.w3.org/2000/svg">
<path d="M18 22.6108C18 23.3772 17.35 24 16.55 24H1.45C0.65 24 0 23.3772 0 22.6108V1.38922C0 0.622755 0.65 0 1.45 0H11.16L18 6.71617V22.6108Z" fill="black" fill-opacity="0.4"/>
<path d="M11.9092 6.5437L17.9992 12.1102L17.9792 6.697H17.9692H12.5992C12.3492 6.70658 12.1192 6.64909 11.9092 6.5437Z" fill="#434343"/>
<path d="M17.9994 6.70659H12.5994C11.7994 6.70659 11.1494 6.08383 11.1494 5.31737V0L17.9994 6.70659Z" fill="#2C2C2C"/>
<path fill-rule="evenodd" clip-rule="evenodd" d="M13.6803 19.5641H4.32031V11.7941H13.6803V19.5641ZM9.58031 12.9054V14.2947H12.5203V12.9054H9.58031ZM9.58031 15.1282V16.4216H12.5203V15.1282H9.58031ZM9.58031 17.2551V18.4527H12.5203V17.2551H9.58031ZM8.42031 18.4527V17.2551H5.48031V18.4527H8.42031ZM8.42031 16.4216V15.1282H5.48031V16.4216H8.42031ZM8.42031 14.2947V12.9054H5.48031V14.2947H8.42031Z" fill="#434343"/>
</svg>
