
<svg
        width="12"
        height="12"
        viewBox="0 0 12 12"
        fill="none"
        xmlns="http://www.w3.org/2000/svg">
    <path
            d="M4.37096 3.84027L1.2836 0.751221L3.41217 0.751221C3.6198 0.751221 3.78691 0.584112 3.78691 0.376485C3.78691 0.168858 3.6198 0.0017483 3.41217 0.0017483L0.378826 6.10352e-05C0.27923 6.10352e-05 0.184697 0.0388915 0.113808 0.10978C0.0429198 0.180668 0.00408936 0.275202 0.00408936 0.374797L0.00408936 3.40983C0.00408936 3.61577 0.171199 3.78457 0.378826 3.78457C0.586453 3.78457 0.753562 3.61746 0.753562 3.40983L0.753562 1.28126L3.84092 4.37031C3.9135 4.44288 4.00972 4.48002 4.10594 4.48002C4.20216 4.48002 4.29838 4.44288 4.37096 4.37031C4.5178 4.22344 4.5178 3.98711 4.37096 3.84027Z"
            fill="currentColor"
    />
    <path
            d="M11.8862 0.111062C11.8153 0.0401732 11.7208 0.00134277 11.6212 0.00134277L8.58786 0.00134277C8.38024 0.00134277 8.21313 0.168452 8.21313 0.376079C8.21313 0.583706 8.38024 0.750815 8.58786 0.750815L10.7164 0.750815L7.62739 3.83818C7.48053 3.98504 7.48053 4.22135 7.62739 4.36821C7.70165 4.44247 7.79619 4.47793 7.89241 4.47793C7.98863 4.47793 8.08485 4.44079 8.15742 4.36821L11.2465 1.28085L11.2465 3.40943C11.2465 3.61705 11.4136 3.78416 11.6212 3.78416C11.8288 3.78416 11.9959 3.61705 11.9959 3.40943L11.9959 0.376079C11.9959 0.276484 11.9571 0.18195 11.8862 0.111062Z"
            fill="currentColor"
    />
    <path
            d="M11.621 8.2155C11.4133 8.2155 11.2462 8.38261 11.2462 8.59024L11.2462 10.7188L8.15718 7.63145C8.01032 7.48459 7.77401 7.48459 7.62714 7.63145C7.48028 7.77831 7.48028 8.01462 7.62714 8.16148L10.7145 11.2505H8.58762C8.37999 11.2505 8.21288 11.4176 8.21288 11.6253C8.21288 11.8329 8.37999 12 8.58762 12H11.621C11.8286 12 11.9957 11.8329 11.9957 11.6253L11.9957 8.59192C11.9957 8.38432 11.8286 8.2155 11.621 8.2155Z"
            fill="currentColor"
    />
    <path
            d="M4.37154 7.63145C4.22636 7.48459 3.98837 7.48459 3.84319 7.63145L0.754142 10.7188L0.754142 8.59192C0.754142 8.3843 0.587032 8.21719 0.379405 8.21719C0.171778 8.21719 0.00466919 8.3843 0.00466919 8.59192L0.00466919 11.6253C0.00466919 11.7249 0.0434997 11.8194 0.114388 11.8903C0.185277 11.9612 0.27981 12 0.379405 12H3.41275C3.62038 12 3.78749 11.8329 3.78749 11.6253C3.78749 11.4176 3.62038 11.2505 3.41275 11.2505H1.28418L4.37154 8.16148C4.51838 8.01464 4.51838 7.77831 4.37154 7.63145Z"
            fill="currentColor"
    />
</svg>