<svg width="34" height="24" viewBox="0 0 34 24" fill="none" xmlns="http://www.w3.org/2000/svg">
    <mask id="mask0" mask-type="alpha" maskUnits="userSpaceOnUse" x="0" y="0" width="34" height="24">
        <path d="M0.00732422 0.0628662H33.8957V23.9925H0.00732422V0.0628662Z" fill="white"/>
    </mask>
    <g mask="url(#mask0)">
        <path fill-rule="evenodd" clip-rule="evenodd" d="M14.1049 2.67359C15.198 1.5246 16.72 0.811641 18.4032 0.811641C20.6406 0.811641 22.5929 2.07045 23.6323 3.93943C24.5622 3.5202 25.5695 3.30412 26.588 3.30538C30.6237 3.30538 33.8954 6.6351 33.8954 10.7427C33.8954 14.8504 30.6237 18.1802 26.588 18.1802C26.0952 18.1802 25.614 18.1302 25.1484 18.0355C24.2332 19.6827 22.4883 20.7958 20.4862 20.7958C19.6764 20.797 18.877 20.6114 18.1492 20.2531C17.2213 22.4557 15.0588 24 12.5392 24C9.91468 24 7.67791 22.3248 6.81994 19.9753C6.43754 20.0567 6.04778 20.0977 5.65696 20.0975C2.53232 20.0975 -0.000488281 17.5153 -0.000488281 14.33C-0.000488281 12.1952 1.13733 10.3313 2.82849 9.33428C2.47018 8.50185 2.2858 7.60383 2.28685 6.69629C2.28685 3.03283 5.23439 0.0628662 8.87027 0.0628662C11.0049 0.0628662 12.9021 1.0867 14.1049 2.67359Z" fill="#7B7B7B"/>
        <path fill-rule="evenodd" clip-rule="evenodd" d="M4.90907 12.4761C4.88777 12.5322 4.91667 12.5439 4.92352 12.5538C4.98716 12.6003 5.0518 12.634 5.11706 12.6718C5.46266 12.8564 5.78933 12.9105 6.13058 12.9105C6.8259 12.9105 7.25781 12.5376 7.25781 11.937V11.9251C7.25781 11.3698 6.77023 11.168 6.31328 11.0223L6.25363 11.0028C5.90902 10.89 5.61161 10.7924 5.61161 10.5633V10.5516C5.61161 10.3555 5.78547 10.2113 6.05486 10.2113C6.35438 10.2113 6.70933 10.3117 6.93824 10.4393C6.93824 10.4393 7.00574 10.4833 7.03027 10.4175C7.0436 10.382 7.1593 10.0676 7.17163 10.0335C7.18483 9.99673 7.16166 9.96896 7.13788 9.95463C6.87646 9.79392 6.51541 9.6846 6.14166 9.6846L6.07229 9.68485C5.43588 9.68485 4.99152 10.0731 4.99152 10.6288V10.6407C4.99152 11.2263 5.48171 11.4166 5.9409 11.5489L6.01463 11.5721C6.34903 11.6756 6.63784 11.7651 6.63784 12.0024V12.0142C6.63784 12.2316 6.45015 12.3931 6.14789 12.3931C6.0307 12.3931 5.65657 12.3911 5.25231 12.1331C5.20336 12.1043 5.17547 12.0836 5.13773 12.0603C5.1178 12.0482 5.06799 12.0262 5.04632 12.092L4.90907 12.4761ZM15.0879 12.4761C15.0666 12.5322 15.0955 12.5439 15.1026 12.5538C15.166 12.6003 15.2307 12.634 15.2959 12.6718C15.6416 12.8564 15.9683 12.9105 16.3094 12.9105C17.0047 12.9105 17.4368 12.5376 17.4368 11.937V11.9251C17.4368 11.3698 16.9493 11.168 16.4922 11.0223L16.4326 11.0028C16.088 10.89 15.7904 10.7924 15.7904 10.5633V10.5516C15.7904 10.3555 15.9644 10.2113 16.2339 10.2113C16.5333 10.2113 16.8882 10.3117 17.1171 10.4393C17.1171 10.4393 17.1846 10.4833 17.2092 10.4175C17.2224 10.382 17.3383 10.0676 17.3505 10.0335C17.3638 9.99673 17.3405 9.96896 17.3168 9.95463C17.0553 9.79392 16.6944 9.6846 16.3206 9.6846L16.2511 9.68485C15.6148 9.68485 15.1705 10.0731 15.1705 10.6288V10.6407C15.1705 11.2263 15.6605 11.4166 16.1199 11.5489L16.1935 11.5721C16.528 11.6756 16.8168 11.7651 16.8168 12.0024V12.0142C16.8168 12.2316 16.629 12.3931 16.327 12.3931C16.2095 12.3931 15.8354 12.3911 15.4313 12.1331C15.3823 12.1043 15.3537 12.0845 15.3166 12.0603C15.304 12.0523 15.2453 12.0292 15.2253 12.092L15.0879 12.4761ZM22.0367 11.2995C22.0367 11.6388 21.974 11.9067 21.8507 12.0955C21.7281 12.2828 21.5432 12.3739 21.2852 12.3739C21.0273 12.3739 20.8434 12.2829 20.7228 12.0958C20.6011 11.9068 20.5394 11.6388 20.5394 11.2995C20.5394 10.9605 20.6011 10.6935 20.7228 10.5065C20.8434 10.3212 21.0273 10.2312 21.2852 10.2312C21.5432 10.2312 21.7281 10.3213 21.8507 10.5066C21.9742 10.6935 22.0367 10.9605 22.0367 11.2995ZM22.6173 10.6704C22.5602 10.4757 22.4714 10.3045 22.3532 10.1616C22.2347 10.0183 22.0849 9.90311 21.9073 9.81968C21.73 9.73612 21.5207 9.69377 21.2852 9.69377C21.0497 9.69377 20.8404 9.73612 20.6629 9.81968C20.4856 9.90311 20.3356 10.0183 20.2172 10.1618C20.0991 10.305 20.0101 10.476 19.9531 10.6704C19.8965 10.8635 19.8677 11.0752 19.8677 11.2995C19.8677 11.5239 19.8965 11.7358 19.9531 11.9287C20.0101 12.1229 20.0989 12.2941 20.2173 12.4374C20.3357 12.5809 20.4861 12.6952 20.6632 12.7766C20.8407 12.858 21.05 12.8995 21.2852 12.8995C21.5206 12.8995 21.7296 12.858 21.9071 12.7766C22.0844 12.6952 22.2345 12.5809 22.3532 12.4374C22.4714 12.2946 22.5602 12.1232 22.6173 11.9287C22.6739 11.7354 22.7027 11.5237 22.7027 11.2995C22.7027 11.0755 22.6739 10.8636 22.6173 10.6704ZM27.3832 12.283C27.3641 12.2261 27.3091 12.2476 27.3091 12.2476C27.2248 12.2801 27.1351 12.3103 27.0392 12.3254C26.9426 12.3407 26.8356 12.3483 26.7211 12.3483C26.4405 12.3483 26.217 12.264 26.0574 12.0974C25.8972 11.9307 25.8071 11.6613 25.8081 11.2969C25.809 10.9656 25.8884 10.7161 26.0309 10.5259C26.1721 10.3369 26.3879 10.2399 26.6747 10.2399C26.9142 10.2399 27.0969 10.2679 27.2883 10.3285C27.2883 10.3285 27.3338 10.3484 27.3555 10.288C27.4065 10.1456 27.4441 10.0443 27.4984 9.88791C27.5138 9.8433 27.476 9.82445 27.4622 9.81905C27.3869 9.7894 27.2092 9.74077 27.0751 9.72029C26.9497 9.70094 26.8031 9.69088 26.6396 9.69088C26.3958 9.69088 26.1785 9.73298 25.9927 9.81641C25.8072 9.89972 25.6499 10.0148 25.5253 10.1579C25.4006 10.3013 25.3057 10.4726 25.2429 10.6668C25.18 10.8601 25.1483 11.0722 25.1483 11.2971C25.1483 11.7828 25.2782 12.1752 25.5344 12.4627C25.7914 12.7512 26.177 12.8977 26.6803 12.8977C26.9776 12.8977 27.2826 12.837 27.5023 12.7498C27.5023 12.7498 27.5441 12.7295 27.5259 12.6802L27.3832 12.283ZM28.3987 10.9742C28.4265 10.7856 28.4777 10.6289 28.5575 10.5065C28.6779 10.3212 28.8613 10.219 29.1192 10.219C29.3772 10.219 29.5472 10.3213 29.6698 10.5066C29.7507 10.6291 29.7861 10.7924 29.7999 10.9744L28.3987 10.9742ZM30.3527 10.5599C30.3032 10.3722 30.1814 10.1826 30.1013 10.0959C29.9749 9.9584 29.8511 9.86215 29.7282 9.809C29.5503 9.73272 29.3589 9.69352 29.1656 9.69377C28.9204 9.69377 28.6976 9.73562 28.5169 9.82106C28.3359 9.90676 28.1839 10.0239 28.0647 10.1694C27.9453 10.3148 27.8557 10.4878 27.7985 10.6841C27.7413 10.8792 27.7124 11.0919 27.7124 11.3166C27.7124 11.545 27.7424 11.758 27.8014 11.9495C27.8611 12.1427 27.9568 12.3122 28.0861 12.4533C28.2153 12.5949 28.3815 12.706 28.5802 12.7834C28.7778 12.8606 29.0179 12.9007 29.2933 12.8998C29.861 12.898 30.1595 12.7703 30.2828 12.7016C30.3046 12.6892 30.3251 12.668 30.2995 12.6068L30.1709 12.2439C30.1513 12.1898 30.097 12.2094 30.097 12.2094C29.9561 12.2624 29.7567 12.357 29.2904 12.356C28.9858 12.3555 28.7601 12.2647 28.6183 12.1228C28.4732 11.9777 28.402 11.7646 28.3899 11.4635L30.3542 11.465C30.3542 11.465 30.406 11.4645 30.4113 11.4135C30.4134 11.3924 30.4787 11.0064 30.3527 10.5599ZM12.6642 10.9742C12.692 10.7856 12.7433 10.6289 12.823 10.5065C12.9435 10.3212 13.1266 10.219 13.3848 10.219C13.6428 10.219 13.8128 10.3213 13.9354 10.5066C14.0162 10.6291 14.0516 10.7924 14.0654 10.9744L12.6642 10.9742ZM14.6181 10.5599C14.5688 10.3722 14.4469 10.1826 14.3669 10.0959C14.2405 9.9584 14.1168 9.86215 13.9938 9.809C13.8159 9.73276 13.6245 9.69356 13.4312 9.69377C13.186 9.69377 12.9632 9.73562 12.7825 9.82106C12.6015 9.90676 12.4495 10.0239 12.33 10.1694C12.2109 10.3148 12.1213 10.4878 12.0639 10.6841C12.0067 10.8792 11.978 11.0919 11.978 11.3166C11.978 11.545 12.0077 11.758 12.0671 11.9495C12.1267 12.1427 12.2226 12.3122 12.3516 12.4533C12.4809 12.5949 12.647 12.706 12.8456 12.7834C13.0434 12.8606 13.2833 12.9007 13.5589 12.8998C14.1264 12.898 14.4251 12.7703 14.5484 12.7016C14.5701 12.6892 14.5907 12.668 14.5649 12.6068L14.4365 12.2439C14.4167 12.1898 14.3624 12.2094 14.3624 12.2094C14.2217 12.2624 14.0223 12.357 13.5559 12.356C13.2514 12.3555 13.0256 12.2647 12.8838 12.1228C12.7388 11.9777 12.6674 11.7646 12.6553 11.4635L14.6197 11.465C14.6197 11.465 14.6716 11.4645 14.6769 11.4135C14.679 11.3924 14.7443 11.0064 14.6181 10.5599ZM8.41767 12.2722C8.34058 12.2101 8.32987 12.1949 8.30434 12.1546C8.26536 12.0939 8.24543 12.0074 8.24543 11.8967C8.24543 11.7227 8.30272 11.5973 8.42078 11.5131C8.41954 11.5134 8.59016 11.3646 8.99057 11.3699C9.16919 11.3731 9.34739 11.3884 9.52398 11.4157V12.3167H9.52423C9.52423 12.3167 9.27452 12.3708 8.99343 12.3879C8.5939 12.4122 8.41643 12.2718 8.41767 12.2722ZM9.19942 10.8792C9.11972 10.8733 9.01647 10.8704 8.89267 10.8704C8.72442 10.8704 8.56164 10.8915 8.40883 10.933C8.25539 10.9747 8.1174 11.0393 7.99871 11.1249C7.8801 11.2103 7.78256 11.3222 7.71363 11.4518C7.64402 11.5826 7.60852 11.7363 7.60852 11.9086C7.60852 12.0843 7.63878 12.2366 7.69857 12.361C7.75705 12.4844 7.8451 12.5911 7.95475 12.6714C8.06397 12.7516 8.19873 12.8104 8.35503 12.8463C8.50933 12.8819 8.68419 12.8998 8.87524 12.8998C9.077 12.8998 9.27763 12.8828 9.47204 12.8497C9.63764 12.8209 9.80262 12.7886 9.96685 12.7527C10.0324 12.7375 10.1046 12.7175 10.1046 12.7175C10.1532 12.7051 10.1494 12.6527 10.1494 12.6527L10.1483 10.84C10.1483 10.4424 10.0432 10.1479 9.83608 9.96494C9.62996 9.78286 9.32646 9.69088 8.93377 9.69088C8.78632 9.69088 8.54944 9.71099 8.40721 9.73976C8.40721 9.73976 7.97829 9.8237 7.80169 9.9633C7.80169 9.9633 7.76283 9.98743 7.784 10.0421L7.92311 10.4191C7.94043 10.4679 7.98763 10.4512 7.98763 10.4512C7.98763 10.4512 8.00245 10.4453 8.01988 10.4349C8.39774 10.2276 8.87586 10.2337 8.87586 10.2337C9.08808 10.2337 9.25161 10.2771 9.36145 10.3619C9.46868 10.4449 9.52311 10.57 9.52311 10.8342V10.918C9.3546 10.8934 9.19942 10.8792 9.19942 10.8792ZM25.0455 9.858C25.0484 9.85138 25.0499 9.84424 25.0499 9.83703C25.0499 9.82981 25.0485 9.82266 25.0458 9.816C25.043 9.80934 25.039 9.80331 25.0339 9.79826C25.0288 9.79322 25.0227 9.78926 25.016 9.78663C24.9825 9.77382 24.8155 9.73826 24.6867 9.73021C24.4398 9.71463 24.3029 9.7566 24.1801 9.81239C24.0583 9.8678 23.9234 9.9574 23.8482 10.0596L23.8479 9.8178C23.8479 9.78462 23.8247 9.75786 23.7915 9.75786H23.2879C23.2552 9.75786 23.2316 9.78462 23.2316 9.8178V12.7747C23.2316 12.7906 23.2379 12.8059 23.2491 12.8172C23.2603 12.8285 23.2754 12.8348 23.2912 12.8349H23.8075C23.8233 12.8348 23.8384 12.8285 23.8496 12.8172C23.8607 12.8059 23.867 12.7906 23.867 12.7747V11.2976C23.867 11.0992 23.8887 10.9016 23.9319 10.7773C23.9745 10.6543 24.0324 10.5563 24.1041 10.4858C24.1721 10.4177 24.2553 10.3672 24.3467 10.3385C24.4324 10.3137 24.5211 10.3011 24.6103 10.3011C24.713 10.3011 24.8261 10.3277 24.8261 10.3277C24.864 10.332 24.885 10.3086 24.8978 10.2742C24.9316 10.1836 25.0272 9.91204 25.0455 9.858Z" fill="#FFFFFE"/>
        <path fill-rule="evenodd" clip-rule="evenodd" d="M20.2007 8.48779C20.137 8.46836 20.0721 8.45283 20.0065 8.4413C19.9183 8.42644 19.8289 8.41946 19.7395 8.42044C19.3842 8.42044 19.1041 8.52172 18.9074 8.72176C18.7122 8.92029 18.5793 9.22274 18.5126 9.62069L18.4886 9.75501H18.0426C18.0426 9.75501 17.9882 9.75275 17.9767 9.81269L17.9035 10.2248C17.8984 10.2643 17.9152 10.2889 17.9675 10.2887H18.4017L17.9612 12.7695C17.9267 12.9693 17.8872 13.1336 17.8435 13.2581C17.8004 13.381 17.7583 13.4731 17.7065 13.54C17.6563 13.6047 17.6087 13.6523 17.5266 13.6801C17.4589 13.7031 17.3809 13.7136 17.2955 13.7136C17.2479 13.7136 17.1846 13.7056 17.1379 13.6962C17.0912 13.6869 17.067 13.6763 17.032 13.6615C17.032 13.6615 16.981 13.6419 16.961 13.6934C16.9447 13.7355 16.829 14.0565 16.8153 14.0962C16.8013 14.1355 16.8209 14.1664 16.8455 14.1753C16.9033 14.1961 16.9463 14.2095 17.025 14.2282C17.1343 14.2542 17.2265 14.2558 17.3128 14.2558C17.4936 14.2558 17.6584 14.2302 17.795 14.1804C17.9325 14.1303 18.0522 14.043 18.1581 13.9247C18.2725 13.7972 18.3445 13.6636 18.4134 13.4814C18.4815 13.3009 18.5395 13.0767 18.586 12.8155L19.0286 10.2887H19.6757C19.6757 10.2887 19.7303 10.2907 19.7416 10.231L19.8149 9.81885C19.82 9.77939 19.8033 9.75476 19.7507 9.75501H19.1226C19.1258 9.74069 19.1543 9.51778 19.2264 9.30794C19.2572 9.21834 19.3151 9.14609 19.3641 9.09646C19.4099 9.04919 19.4664 9.01376 19.5287 8.99317C19.5969 8.97188 19.6681 8.96153 19.7395 8.96251C19.7987 8.96251 19.8567 8.96967 19.9009 8.97897C19.9618 8.99204 19.9855 8.99895 20.0014 9.00373C20.0654 9.02345 20.074 9.00436 20.0866 8.97307L20.2368 8.5569C20.2522 8.51217 20.2146 8.49332 20.2007 8.48779ZM11.4237 12.7747C11.4237 12.8079 11.4003 12.8349 11.3674 12.8349H10.8465C10.8135 12.8349 10.79 12.8079 10.79 12.7747V8.54421C10.79 8.51116 10.8135 8.4844 10.8465 8.4844H11.3674C11.4003 8.4844 11.4237 8.51116 11.4237 8.54421V12.7747Z" fill="#FFFFFE"/>
    </g>
</svg>
