<svg width="216" height="41" xmlns="http://www.w3.org/2000/svg">

 <g>
  <title>background</title>
  <rect fill="none" id="canvas_background" height="402" width="582" y="-1" x="-1"/>
 </g>
 <g>
  <title>Layer 1</title>
  <path id="svg_1" fill="#1C5DE1" d="m25.9726,32.08l0,7.92l-25.056037,0l0,-6.24l10.848037,-12.096l-10.46404,0l0,-7.92l24.14404,0l0,6.24l-10.848,12.096l11.376,0zm30.9806,-5.232c0,0.16 -0.048,1.008 -0.144,2.544l-18.24,0c0.384,0.992 1.024,1.76 1.92,2.304c0.896,0.512 2.016,0.768 3.36,0.768c1.152,0 2.112,-0.144 2.88,-0.432c0.8,-0.288 1.664,-0.784 2.592,-1.488l5.664,5.712c-2.56,2.816 -6.384,4.224 -11.472,4.224c-3.168,0 -5.952,-0.576 -8.352,-1.728c-2.4,-1.184 -4.256,-2.816 -5.568,-4.896c-1.312,-2.08 -1.968,-4.416 -1.968,-7.008c0,-2.624 0.64,-4.96 1.92,-7.008c1.312,-2.08 3.088,-3.696 5.328,-4.848c2.272,-1.152 4.816,-1.728 7.632,-1.728c2.656,0 5.072,0.528 7.248,1.584c2.208,1.056 3.952,2.608 5.232,4.656c1.312,2.048 1.968,4.496 1.968,7.344zm-14.352,-6.192c-1.12,0 -2.048,0.304 -2.784,0.912c-0.736,0.608 -1.216,1.472 -1.44,2.592l8.448,0c-0.224,-1.088 -0.704,-1.936 -1.44,-2.544c-0.736,-0.64 -1.664,-0.96 -2.784,-0.96zm36.0154,-7.392c3.232,0 5.824,0.976 7.776,2.928c1.984,1.952 2.976,4.896 2.976,8.832l0,14.976l-10.848,0l0,-13.104c0,-3.008 -1.072,-4.512 -3.216,-4.512c-1.216,0 -2.208,0.432 -2.976,1.296c-0.736,0.832 -1.104,2.16 -1.104,3.984l0,12.336l-10.848,0l0,-26.256l10.32,0l0,2.592c1.024,-1.024 2.208,-1.792 3.552,-2.304c1.344,-0.512 2.8,-0.768 4.368,-0.768zm44.2264,0.48l-10.56,26.256l-11.232,0l-10.5601,-26.256l11.1361,0l5.28,14.064l5.664,-14.064l10.272,0zm1.659,0l10.848,0l0,26.256l-10.848,0l0,-26.256zm5.424,-2.112c-1.952,0 -3.536,-0.512 -4.752,-1.536c-1.184,-1.056 -1.776,-2.384 -1.776,-3.984c0,-1.6 0.592,-2.912 1.776,-3.936c1.216,-1.056 2.8,-1.584002 4.752,-1.584002c1.984,0 3.568,0.496002 4.752,1.488002c1.184,0.992 1.776,2.272 1.776,3.84c0,1.664 -0.592,3.04 -1.776,4.128c-1.184,1.056 -2.768,1.584 -4.752,1.584zm38.168,15.216c0,0.16 -0.048,1.008 -0.144,2.544l-18.24,0c0.384,0.992 1.024,1.76 1.92,2.304c0.896,0.512 2.016,0.768 3.36,0.768c1.152,0 2.112,-0.144 2.88,-0.432c0.8,-0.288 1.664,-0.784 2.592,-1.488l5.664,5.712c-2.56,2.816 -6.384,4.224 -11.472,4.224c-3.168,0 -5.952,-0.576 -8.352,-1.728c-2.4,-1.184 -4.256,-2.816 -5.568,-4.896c-1.312,-2.08 -1.968,-4.416 -1.968,-7.008c0,-2.624 0.64,-4.96 1.92,-7.008c1.312,-2.08 3.088,-3.696 5.328,-4.848c2.272,-1.152 4.816,-1.728 7.632,-1.728c2.656,0 5.072,0.528 7.248,1.584c2.208,1.056 3.952,2.608 5.232,4.656c1.312,2.048 1.968,4.496 1.968,7.344zm-14.352,-6.192c-1.12,0 -2.048,0.304 -2.784,0.912c-0.736,0.608 -1.216,1.472 -1.44,2.592l8.448,0c-0.224,-1.088 -0.704,-1.936 -1.44,-2.544c-0.736,-0.64 -1.664,-0.96 -2.784,-0.96zm62.09,-6.912l-9.12,26.256l-10.56,0l-3.984,-12.144l-4.128,12.144l-10.56,0l-9.12,-26.256l10.272,0l4.512,13.872l4.704,-13.872l9.216,0l4.56,14.016l4.704,-14.016l9.504,0z"/>
  <rect id="svg_2" height="50" width="223" y="-3.5" x="-0.5" stroke-opacity="null" stroke-width="0" stroke="null" fill="#ffffff"/>
  <text style="cursor: move;" font-weight="bold" xml:space="preserve" text-anchor="start" font-family="Helvetica, Arial, sans-serif" font-size="24" id="svg_3" y="29" x="4.648438" stroke-opacity="null" stroke-width="0" stroke="null" fill="#2b5de1">UDI COMPLIANCE</text>
  <rect id="svg_4" height="38" width="219" y="0.5" x="-1.5" stroke-opacity="null" stroke-width="0" stroke="null" fill="#f9fafc"/>
  <text style="cursor: move;" font-weight="bold" xml:space="preserve" text-anchor="start" font-family="Helvetica, Arial, sans-serif" font-size="24" id="svg_5" y="29" x="4.648438" stroke-opacity="null" stroke-width="0" stroke="null" fill="#2d5de1">UDI COMPLIANCE</text>
  <rect id="svg_6" height="48" width="233" y="31.5" x="-2.5" stroke-opacity="null" stroke-width="0" stroke="null" fill="#f9fafc"/>
 </g>
</svg>