<?xml version="1.0" standalone="no"?>
<!DOCTYPE svg PUBLIC "-//W3C//DTD SVG 20010904//EN"
 "http://www.w3.org/TR/2001/REC-SVG-20010904/DTD/svg10.dtd">
<svg version="1.0" xmlns="http://www.w3.org/2000/svg"
 width="2000.000000pt" height="2000.000000pt" viewBox="0 0 2000.000000 2000.000000"
 preserveAspectRatio="xMidYMid meet">
<metadata>
Created by potrace 1.16, written by Peter Selinger 2001-2019
</metadata>
<g transform="translate(0.000000,2000.000000) scale(0.100000,-0.100000)"
fill="#000000" stroke="none">
<path d="M9705 15549 c-858 -73 -1652 -425 -2270 -1008 -972 -918 -1381 -2253
-1089 -3561 120 -537 379 -1070 740 -1520 210 -263 531 -558 814 -749 806
-545 1778 -754 2740 -590 756 129 1452 491 2005 1044 558 556 919 1254 1049
2025 71 420 68 883 -9 1305 -227 1241 -1090 2301 -2265 2785 -530 217 -1158
316 -1715 269z m600 -270 c243 -19 508 -72 754 -151 1104 -353 1976 -1253
2290 -2366 95 -336 125 -560 126 -942 0 -366 -20 -538 -102 -865 -335 -1344
-1490 -2388 -2860 -2585 -206 -29 -317 -37 -513 -37 -1323 0 -2521 744 -3121
1939 -191 380 -310 814 -350 1268 -15 168 -6 550 16 709 108 781 444 1468 985
2012 740 743 1721 1103 2775 1018z"/>
<path d="M9790 15163 c-459 -34 -862 -141 -1255 -333 -366 -179 -645 -380
-931 -672 -162 -165 -280 -310 -400 -491 -745 -1120 -745 -2588 -1 -3707 510
-766 1300 -1287 2197 -1449 380 -69 822 -69 1199 0 899 162 1688 683 2198
1449 804 1208 734 2806 -173 3945 -110 138 -338 371 -467 478 -512 425 -1108
682 -1762 763 -119 14 -498 25 -605 17z m20 -1953 c0 -324 0 -593 0 -596 0 -3
-57 -6 -127 -7 l-128 0 -5 449 -5 449 -618 0 -618 0 0 -615 1 -615 450 -3 450
-2 0 -140 0 -140 -600 0 -601 0 3 798 3 797 23 50 c39 84 104 139 184 154 24
5 391 9 816 10 l772 1 0 -590z m1971 568 c110 -29 153 -72 185 -184 16 -53 18
-135 21 -794 2 -547 0 -745 -9 -772 l-11 -38 -279 0 -278 0 0 134 0 133 53 7
c28 3 75 6 102 6 28 0 67 3 88 6 l37 7 0 613 0 614 -617 -2 -618 -3 -3 -757
-2 -758 -135 0 -135 0 0 906 0 905 773 -4 c651 -3 781 -6 828 -19z m-2580
-888 l0 -285 -286 -3 -285 -2 0 290 0 290 286 -2 286 -3 -1 -285z m2159 0 l0
-290 -285 0 -285 0 0 290 0 290 285 0 285 0 0 -290z m-1552 -760 l3 -130 -131
0 -130 0 0 123 c0 68 4 127 9 133 6 5 63 8 128 7 l118 -2 3 -131z m1242 0 l0
-130 -124 0 -125 0 -3 126 c-2 69 -1 128 1 130 2 2 60 4 128 4 l123 0 0 -130z
m-1242 -1080 l-3 -591 -133 -2 -132 -2 0 448 0 447 -615 0 -615 0 0 -620 0
-620 755 0 755 0 0 -140 0 -140 -307 0 c-1148 -2 -1244 1 -1306 32 -88 44
-173 149 -183 224 -7 57 -16 1533 -9 1544 4 6 333 10 901 10 l894 0 -2 -590z
m2172 454 l0 -124 -130 0 -130 0 0 128 0 127 130 -3 130 -3 0 -125z m-930 -4
l0 -130 -300 0 -300 0 0 -305 0 -306 -137 3 -138 3 -2 424 c-2 233 0 427 3
432 3 5 200 9 440 9 l434 0 0 -130z m615 -295 l0 -120 -130 -3 -130 -3 2 113
c1 62 2 119 2 126 1 10 30 12 129 10 l127 -3 0 -120z m-2465 -470 l0 -285
-285 0 -285 0 0 285 0 285 285 0 285 0 0 -285z m1850 -157 l0 -443 -294 2
-293 2 -6 -62 c-4 -34 -9 -101 -13 -149 l-7 -88 -123 0 -123 0 -3 286 c-2 157
-1 288 1 290 2 2 134 4 292 4 l287 0 6 26 c4 14 6 146 6 292 -1 147 -1 270 0
275 0 4 61 7 135 7 l135 0 0 -442z m938 -185 c-5 -381 -8 -394 -92 -478 -85
-85 -111 -90 -483 -90 l-313 0 0 138 0 137 295 0 295 0 0 164 0 163 -47 6
c-27 4 -82 9 -123 12 -132 11 -120 -4 -120 145 l0 130 296 0 296 0 -4 -327z"/>
<path d="M2642 6738 c3 -331 3 -333 29 -394 62 -148 183 -229 359 -241 240
-17 410 117 440 348 5 40 10 197 10 347 l0 272 -105 0 c-77 0 -105 -3 -105
-12 0 -7 -1 -143 -3 -303 -4 -301 -7 -327 -50 -389 -63 -90 -250 -87 -320 5
-42 57 -47 96 -47 407 l0 292 -106 0 -105 0 3 -332z"/>
<path d="M3873 6598 l2 -473 215 -3 c234 -3 303 5 387 45 302 142 340 617 65
818 -95 70 -137 78 -419 83 l-253 4 3 -474z m475 252 c101 -32 164 -128 165
-254 1 -118 -45 -198 -138 -242 -44 -21 -65 -24 -167 -24 l-118 0 0 263 c0
145 3 266 6 270 11 11 208 1 252 -13z"/>
<path d="M5100 6595 l0 -475 105 0 105 0 0 475 0 475 -105 0 -105 0 0 -475z"/>
<path d="M6640 7060 c-219 -38 -364 -203 -377 -432 -10 -162 31 -283 126 -378
95 -95 213 -135 370 -127 53 2 119 12 147 21 59 18 174 91 174 110 0 6 -25 36
-55 66 l-54 53 -38 -26 c-66 -46 -113 -60 -193 -61 -134 -2 -234 56 -283 162
-33 70 -31 218 3 286 82 168 299 219 464 110 l39 -26 56 56 56 57 -35 30
c-101 85 -257 124 -400 99z"/>
<path d="M7787 7059 c-160 -31 -294 -157 -342 -322 -20 -71 -23 -203 -5 -277
27 -117 111 -230 208 -283 184 -100 447 -67 582 74 178 186 168 533 -20 703
-102 92 -270 134 -423 105z m202 -165 c73 -21 143 -88 172 -163 17 -41 23 -78
23 -141 1 -77 -2 -92 -32 -152 -57 -117 -146 -165 -286 -156 -88 6 -139 31
-195 94 -50 57 -74 130 -73 223 1 221 182 357 391 295z"/>
<path d="M15830 7059 c-86 -14 -190 -71 -247 -133 -88 -95 -125 -200 -125
-347 0 -179 93 -339 235 -408 100 -48 244 -64 359 -40 87 18 228 96 228 126 0
5 -25 33 -55 63 l-54 53 -38 -26 c-66 -46 -113 -60 -193 -61 -100 -1 -170 24
-225 79 -108 107 -115 316 -15 437 88 107 290 129 416 46 l46 -31 56 57 57 57
-25 20 c-119 96 -269 135 -420 108z"/>
<path d="M8770 6595 l0 -455 85 0 85 0 2 326 3 325 144 -195 c86 -118 150
-196 160 -196 9 0 76 80 161 195 l145 195 3 -325 2 -325 85 0 85 0 0 455 0
455 -98 0 -97 0 -142 -195 -141 -195 -142 195 -142 195 -99 0 -99 0 0 -455z"/>
<path d="M10180 6596 l0 -456 85 0 85 0 0 134 0 134 183 4 c175 3 184 4 233
30 68 36 112 81 143 148 35 75 36 200 3 275 -30 65 -92 128 -156 157 -48 22
-64 23 -313 26 l-263 3 0 -455z m513 267 c37 -21 77 -93 77 -139 0 -49 -40
-115 -85 -138 -34 -17 -60 -21 -187 -22 l-148 -2 0 157 c0 87 2 160 4 162 2 2
72 3 155 2 127 -1 157 -4 184 -20z"/>
<path d="M11340 6595 l0 -455 320 0 320 0 0 80 0 80 -235 0 -235 0 0 375 0
375 -85 0 -85 0 0 -455z"/>
<path d="M12388 6595 l-3 -455 88 0 87 0 0 455 0 455 -85 0 -85 0 -2 -455z"/>
<path d="M13268 6948 c-216 -481 -358 -801 -358 -804 0 -2 42 -4 93 -4 l92 0
39 85 39 85 236 0 237 0 35 -82 36 -83 96 -3 c92 -3 96 -2 89 16 -4 11 -95
216 -202 456 l-195 435 -96 1 -95 0 -46 -102z m219 -275 c40 -93 75 -176 79
-185 6 -17 -6 -18 -155 -18 -96 0 -161 4 -161 10 0 15 152 360 159 360 3 0 39
-75 78 -167z"/>
<path d="M14288 6595 l-3 -455 87 0 88 0 2 300 3 299 233 -299 233 -300 55 0
54 0 0 455 0 455 -85 0 -85 0 -2 -277 -3 -278 -80 100 c-44 55 -143 180 -220
278 l-139 177 -68 0 -68 0 -2 -455z"/>
<path d="M16660 6595 l0 -455 340 0 340 0 0 85 0 85 -255 0 -255 0 0 100 0
100 247 2 248 3 3 78 c3 69 2 77 -15 77 -10 0 -121 1 -248 3 l-230 2 -3 103
-3 102 256 0 255 0 0 85 0 85 -340 0 -340 0 0 -455z"/>
<path d="M4560 5289 c-170 -12 -269 -92 -270 -217 0 -117 66 -170 270 -212
208 -43 260 -66 293 -130 38 -74 0 -156 -92 -198 -47 -22 -71 -26 -146 -26
-78 -1 -98 3 -152 28 -37 17 -79 47 -103 72 -37 40 -42 43 -65 32 -33 -15 -32
-27 9 -74 121 -142 428 -165 561 -43 53 49 68 91 63 174 -7 120 -74 167 -305
215 -76 16 -152 34 -167 40 -114 43 -134 147 -44 224 51 44 118 60 229 54 94
-5 150 -28 191 -77 25 -29 26 -29 52 -12 l26 17 -35 41 c-64 76 -159 103 -315
92z"/>
<path d="M5972 5289 c-248 -44 -383 -299 -302 -570 34 -114 120 -207 232 -252
72 -28 228 -30 309 -4 110 37 206 136 245 254 28 86 26 248 -5 326 -44 113
-137 200 -246 232 -65 20 -167 26 -233 14z m218 -75 c190 -60 281 -312 187
-518 -47 -103 -126 -163 -244 -186 -170 -33 -333 53 -395 209 -18 45 -22 76
-23 156 0 89 3 107 28 160 78 167 257 239 447 179z"/>
<path d="M12374 5285 c-124 -27 -213 -97 -266 -210 -94 -202 -36 -455 129
-564 140 -93 346 -93 486 0 165 109 223 362 129 564 -55 117 -152 189 -287
214 -74 14 -114 13 -191 -4z m235 -73 c108 -32 202 -151 219 -277 27 -210 -73
-374 -258 -421 -168 -43 -335 34 -406 188 -26 57 -29 73 -29 173 0 101 2 115
29 169 80 163 248 227 445 168z"/>
<path d="M15333 5289 c-173 -21 -271 -137 -233 -275 24 -83 86 -117 298 -163
189 -40 255 -76 268 -147 22 -120 -78 -198 -256 -198 -72 0 -94 4 -148 28 -40
19 -77 45 -102 73 -35 40 -40 43 -64 32 -32 -15 -32 -16 -2 -60 30 -44 100
-92 170 -116 68 -24 241 -23 306 1 112 41 163 107 163 210 0 139 -64 186 -328
241 -201 41 -255 81 -242 176 12 88 105 141 248 140 97 0 152 -17 204 -64 41
-36 49 -39 71 -28 31 14 22 34 -37 85 -68 58 -180 81 -316 65z"/>
<path d="M7245 5278 c-3 -7 -4 -195 -3 -418 l3 -405 245 -3 c135 -1 254 0 266
2 15 4 21 13 19 33 l-1 28 -232 3 -232 2 -2 382 -3 381 -28 4 c-16 2 -29 -2
-32 -9z"/>
<path d="M8464 5275 c-3 -7 -4 -145 -2 -306 3 -284 4 -296 27 -346 27 -62 94
-126 159 -156 67 -30 189 -29 255 1 108 49 167 125 186 239 5 34 10 177 11
317 1 241 0 255 -18 260 -51 16 -51 16 -54 -302 -3 -282 -4 -299 -25 -337 -48
-90 -127 -137 -228 -138 -104 0 -185 52 -225 145 -22 51 -23 62 -21 341 1 158
-2 288 -6 288 -38 6 -55 5 -59 -6z"/>
<path d="M11215 5277 c-3 -6 -4 -194 -3 -417 l3 -404 30 -1 30 0 3 409 c2 321
0 411 -10 418 -19 12 -48 10 -53 -5z"/>
<path d="M13667 5283 c-10 -9 -9 -823 1 -824 4 -1 18 -2 32 -3 l25 -1 5 336 5
336 270 -331 c149 -182 278 -332 288 -334 16 -3 17 21 15 410 l-3 413 -30 0
-30 0 0 -333 c0 -182 -3 -332 -6 -332 -4 0 -125 145 -269 323 -144 177 -269
328 -279 335 -10 6 -21 9 -24 5z"/>
<path d="M9820 5250 l0 -30 145 0 145 0 2 -376 c3 -334 5 -378 19 -387 9 -6
24 -7 33 -4 14 6 16 44 16 387 l0 380 150 0 150 0 0 30 0 30 -330 0 -330 0 0
-30z"/>
</g>
</svg>
