<svg viewBox="0 0 20 20" fill="none" xmlns="http://www.w3.org/2000/svg">
<path d="M11.1721 10.0057L19.7453 1.43251C20.0761 1.11295 20.0853 0.585672 19.7658 0.254784C19.4462 -0.0761041 18.9189 -0.0852791 18.588 0.234287C18.5811 0.240973 18.5743 0.247805 18.5675 0.254784L9.9943 8.82796L1.42112 0.254735C1.09024 -0.0648304 0.562961 -0.0556554 0.243395 0.275233C-0.0683619 0.59802 -0.0683619 1.10973 0.243395 1.43251L8.81658 10.0057L0.243395 18.5789C-0.0817829 18.9041 -0.0817829 19.4314 0.243395 19.7566C0.568623 20.0817 1.0959 20.0817 1.42112 19.7566L9.9943 11.1834L18.5675 19.7566C18.8984 20.0762 19.4256 20.067 19.7452 19.7361C20.0569 19.4133 20.0569 18.9016 19.7452 18.5789L11.1721 10.0057Z" fill="#868E9A"/>
</svg>
