<svg viewBox="0 0 20 20" fill="none" xmlns="http://www.w3.org/2000/svg">
<g clip-path="url(#clip0)">
<path d="M8.2912 15.2441L5.93451 17.6008C4.95747 18.5778 3.37523 18.5778 2.39902 17.601C1.42261 16.6246 1.42261 15.0422 2.39882 14.066L7.11303 9.35174C8.08925 8.37549 9.67164 8.37549 10.6479 9.35174C10.9733 9.67717 11.5009 9.67717 11.8264 9.35174C12.1518 9.02631 12.1518 8.49865 11.8264 8.17322C10.1993 6.5461 7.56163 6.5461 5.93451 8.17322L1.22034 12.8874C-0.40678 14.5145 -0.40678 17.1521 1.22034 18.7793C2.84726 20.4072 5.48509 20.4072 7.11307 18.7793L9.46976 16.4226C9.79519 16.0971 9.79519 15.5695 9.46976 15.244C9.14433 14.9186 8.61663 14.9187 8.2912 15.2441Z" fill="#1C5DE1"/>
<path d="M18.779 1.22058C17.1519 -0.406536 14.5134 -0.406536 12.8863 1.22058L10.0587 4.0481C9.7333 4.37353 9.7333 4.90119 10.0587 5.22662C10.3842 5.55205 10.9118 5.55205 11.2373 5.22662L14.0648 2.39911C15.041 1.42285 16.6242 1.42285 17.6005 2.39911C18.5767 3.37532 18.5767 4.95772 17.6005 5.93393L12.4154 11.119C11.4392 12.0953 9.85682 12.0953 8.8806 11.119C8.55517 10.7936 8.02751 10.7936 7.70208 11.119C7.37665 11.4444 7.37665 11.9721 7.70208 12.2975C9.3292 13.9246 11.9668 13.9246 13.594 12.2975L18.779 7.11249C20.4061 5.48537 20.4061 2.8477 18.779 1.22058Z" fill="#1C5DE1"/>
</g>
<defs>
<clipPath id="clip0">
<rect width="20" height="20" fill="white"/>
</clipPath>
</defs>
</svg>
