<svg viewBox="0 0 12 8" fill="none" xmlns="http://www.w3.org/2000/svg">
<path d="M6.00254 5.15593L1.51317 0.666775C1.38985 0.543166 1.22498 0.475166 1.04917 0.475166C0.873268 0.475166 0.708488 0.543166 0.584976 0.666775L0.191805 1.06014C0.0680973 1.18355 -2.69978e-07 1.34853 -2.62293e-07 1.52433C-2.54609e-07 1.70014 0.0680973 1.86492 0.191805 1.98843L5.53678 7.33349C5.66069 7.45749 5.82625 7.52539 6.00225 7.5249C6.17903 7.52539 6.34439 7.45758 6.46839 7.33349L11.8082 1.9934C11.9319 1.86989 12 1.70511 12 1.52921C12 1.35341 11.9319 1.18863 11.8082 1.06502L11.415 0.671751C11.1591 0.415849 10.7425 0.415849 10.4867 0.671751L6.00254 5.15593Z" fill="#495660"/>
</svg>
