<svg viewBox="0 0 20 20" fill="none" xmlns="http://www.w3.org/2000/svg">
<path d="M15.7143 11.4286C14.2966 11.4286 13.0473 12.1284 12.2667 13.192L8.36643 11.2414C8.4872 10.8458 8.57143 10.4345 8.57143 9.99998C8.57143 9.56542 8.4872 9.15405 8.36643 8.75852L12.2667 6.80791C13.0473 7.87157 14.2966 8.57139 15.7143 8.57139C18.0776 8.57139 20 6.64894 20 4.28568C20 1.92241 18.0776 0 15.7143 0C13.351 0 11.4286 1.92245 11.4286 4.28572C11.4286 4.72027 11.5129 5.13156 11.6337 5.52709L7.73322 7.47779C6.95265 6.41412 5.70335 5.7143 4.28568 5.7143C1.92241 5.7143 0 7.63671 0 10C0 12.3633 1.92241 14.2857 4.28572 14.2857C5.7034 14.2857 6.95269 13.5859 7.73326 12.5223L11.6336 14.4729C11.5128 14.8684 11.4286 15.2797 11.4286 15.7143C11.4286 18.0776 13.351 20 15.7143 20C18.0776 20 20 18.0776 20 15.7143C20 13.3511 18.0776 11.4286 15.7143 11.4286ZM15.7143 1.42859C17.2901 1.42859 18.5714 2.71069 18.5714 4.28572C18.5714 5.86079 17.29 7.14285 15.7143 7.14285C14.1385 7.14285 12.8572 5.86074 12.8572 4.28572C12.8572 2.71069 14.1385 1.42859 15.7143 1.42859ZM4.28572 12.8572C2.70994 12.8572 1.42859 11.575 1.42859 10C1.42859 8.42495 2.70998 7.14289 4.28572 7.14289C5.86149 7.14289 7.14285 8.42499 7.14285 10C7.14285 11.575 5.86149 12.8572 4.28572 12.8572ZM15.7143 18.5714C14.1385 18.5714 12.8572 17.2893 12.8572 15.7143C12.8572 14.1393 14.1385 12.8572 15.7143 12.8572C17.2901 12.8572 18.5714 14.1393 18.5714 15.7143C18.5714 17.2894 17.2901 18.5714 15.7143 18.5714Z" fill="#868E9A"/>
</svg>
