<svg viewBox="0 0 12 8" fill="none" xmlns="http://www.w3.org/2000/svg">
<path d="M6.00254 5.1559L1.51317 0.666742C1.38985 0.543133 1.22498 0.475133 1.04917 0.475133C0.873268 0.475133 0.708488 0.543133 0.584976 0.666742L0.191805 1.06011C0.0680973 1.18352 -2.69978e-07 1.3485 -2.62293e-07 1.5243C-2.54609e-07 1.70011 0.0680973 1.86488 0.191805 1.9884L5.53678 7.33345C5.66069 7.45745 5.82625 7.52536 6.00225 7.52487C6.17903 7.52536 6.34439 7.45755 6.46839 7.33345L11.8082 1.99337C11.9319 1.86986 12 1.70508 12 1.52918C12 1.35337 11.9319 1.18859 11.8082 1.06498L11.415 0.671718C11.1591 0.415816 10.7425 0.415816 10.4867 0.671718L6.00254 5.1559Z" fill="black"/>
</svg>
