<svg viewBox="0 0 14 14" fill="none" xmlns="http://www.w3.org/2000/svg">
<path d="M0.446927 12.7518L3.77895 9.28631C2.92223 8.26788 2.45282 6.98648 2.45282 5.65249C2.45282 2.53576 4.98858 0 8.10532 0C11.2221 0 13.7578 2.53576 13.7578 5.65249C13.7578 8.76923 11.2221 11.305 8.10532 11.305C6.93525 11.305 5.82024 10.9521 4.86693 10.2821L1.5096 13.7739C1.36927 13.9196 1.18052 14 0.978261 14C0.786814 14 0.605197 13.927 0.467325 13.7943C0.174378 13.5124 0.165039 13.045 0.446927 12.7518ZM8.10532 1.47456C5.80156 1.47456 3.92739 3.34873 3.92739 5.65249C3.92739 7.95625 5.80156 9.83043 8.10532 9.83043C10.4091 9.83043 12.2832 7.95625 12.2832 5.65249C12.2832 3.34873 10.4091 1.47456 8.10532 1.47456Z" fill="#C4C4C4"/>
</svg>
